<svg width="900" height="740" viewBox="0 0 900 740" fill="none" xmlns="http://www.w3.org/2000/svg">
<ellipse cx="368.5" cy="337.894" rx="7.5" ry="9.5" fill="black"/>
<ellipse cx="429.5" cy="329.894" rx="7.5" ry="9.5" fill="black"/>
<path d="M335.141 216.666L340.514 252.616L335.264 253.35L330.734 223.037L324.929 227.494L322.096 223.418L329.949 217.442L335.141 216.666ZM364.14 230.077C367.635 231.476 370.188 234.684 370.638 237.7C371.555 243.832 367.161 248.938 359.991 250.009C352.87 251.073 347.161 247.376 346.215 241.047L351.456 240.263C351.996 243.873 355.241 245.967 359.296 245.361C363.45 244.74 366.04 241.775 365.501 238.165C364.983 234.703 361.696 232.667 357.592 233.28L355.02 233.664L354.363 229.263L356.983 228.871C360.742 228.31 363.079 225.685 362.607 222.521C362.126 219.306 359.222 217.465 355.563 218.012C351.903 218.559 349.721 221.211 350.202 224.425L344.96 225.208C344.066 219.225 348.143 214.369 354.868 213.364C361.495 212.373 366.798 215.726 367.656 221.463C368.069 224.232 366.777 227.762 364.14 230.077ZM401.204 202.445L406.644 201.632L413.221 245.644L407.781 246.457L401.204 202.445ZM394.326 208.175C396.299 221.378 392.96 233.202 378.738 242.91L375.277 239.029C385.88 231.833 389.956 223.59 389.395 213.411L374.016 215.709L373.358 211.308L394.326 208.175Z" fill="black"/>
<path d="M294.502 290.393C291.169 277.893 285.502 244.193 289.502 209.393C310.669 192.06 370.302 162.893 439.502 184.893C443.335 196.727 452.002 229.293 456.002 264.893C430.335 258.727 363.602 255.193 302.002 290.393M294.502 290.393C297.302 289.993 300.669 290.227 302.002 290.393M294.502 290.393C285.002 291.893 262.502 299.493 248.502 317.893C245.169 322.893 243.202 332.793 262.002 332.393C265.669 332.227 274.802 330.693 282.002 325.893M302.002 290.393C297.002 295.893 286.002 310.693 282.002 325.893M282.002 325.893C275.169 348.06 274.102 398.993 324.502 425.393C326.321 426.309 328.327 427.236 330.502 428.156M456.189 264.893C467.627 267.727 487.232 282.769 498.5 302C512.5 325.893 519.104 376.508 477.502 411.393C473.388 414.558 469.215 417.411 465.002 419.974M553.002 515.893C547.692 515.685 539.103 513.629 533.502 507.824C530.138 504.337 527.852 499.498 528.002 492.893M528.002 492.893C528.715 485.17 532.63 473.007 542.502 469.705M528.002 492.893C525.356 490.082 524.043 487.117 523.52 484.393M488.502 536.893C510.502 553.693 533.335 548.56 542.002 543.893C548.835 540.393 563.902 527.793 569.502 505.393C575.102 482.993 563.835 473.06 557.502 470.893C551.417 468.482 546.476 468.375 542.502 469.705M542.502 469.705L541.002 468.393C537.502 466.893 529.302 466.193 524.502 475.393C523.622 477.153 522.777 480.53 523.52 484.393M481.502 489.893C484.502 508.227 490.302 546.993 489.502 555.393M465.002 419.974C468.502 421.447 477.502 426.393 485.502 434.393C493.502 442.393 510.835 468.393 518.502 480.393C519.347 481.727 521.534 484.393 523.52 484.393M465.002 419.974C414.566 450.67 358.474 439.989 330.502 428.156M330.502 428.156C319.169 435.235 294.202 457.193 285.002 488.393C275.802 519.593 284.169 538.393 289.502 543.893C293.169 549.393 309.002 560.693 343.002 561.893C368.993 562.811 383.394 558.917 390.002 555.393M344.002 490.893C343.169 493.393 341.502 500.193 341.502 507.393C341.502 516.393 345.002 515.393 361.002 517.893C373.802 519.893 384.002 525.06 387.502 527.393C400.702 538.593 397.335 548.727 394.002 552.393C393.335 553.257 392.038 554.308 390.002 555.393M390.002 555.393H606.502M306.002 555.393H253.502M358.502 368.893C363.002 377.727 379.802 394.093 411.002 388.893C420.502 387.227 440.802 378.993 446.002 359.393" stroke="black" stroke-width="3"/>
<circle cx="610" cy="442" r="41.5" fill="white" stroke="black" stroke-width="3"/>
<path d="M636.189 440.673L613.95 444.81L609.743 467.119L604.015 461.391L607.268 445.835L591.641 449.017L585.913 443.289L608.223 439.082L612.359 416.844L618.087 422.571L614.976 438.127L630.426 434.981L636.189 440.673Z" fill="#FF0000"/>
<circle cx="548" cy="413" r="41.5" fill="white" stroke="black" stroke-width="3"/>
<path d="M518.001 508L528.501 498.5C529.002 501.167 530.8 507.2 536 510L527.5 518C524 521 520.502 521 517.502 518C515.069 515.567 514.503 511.5 518.001 508Z" fill="white"/>
<path d="M573.5 462.5L561.501 473M582.002 472.5L569.501 483M528.501 498.5L518.001 508C514.503 511.5 515.069 515.567 517.502 518C520.502 521 524 521 527.5 518L536 510C530.8 507.2 529.002 501.167 528.501 498.5Z" stroke="black" stroke-width="3" stroke-linecap="round" stroke-linejoin="round"/>
<path d="M538 472L540 454C546.5 455 550 455 553 454.5L551.5 469C545.5 467.8 539.833 470.5 538 472Z" fill="white" stroke="black" stroke-width="3" stroke-linecap="round" stroke-linejoin="round"/>
<path d="M548.508 427.4C556.008 427.4 560.858 422.1 560.858 413.95C560.858 405.75 556.008 400.45 548.508 400.45C541.058 400.45 536.208 405.75 536.208 413.95C536.208 422.1 541.058 427.4 548.508 427.4ZM548.508 394.85C559.558 394.85 567.308 402.75 567.308 413.95C567.308 425.15 559.558 433.05 548.508 433.05C537.508 433.05 529.758 425.15 529.758 413.95C529.758 402.75 537.508 394.85 548.508 394.85Z" fill="#0059FF"/>
<path d="M534.5 509.5L533 522.393C533 525.227 534.264 528.772 538.998 529.5C539.336 529.552 544.998 530 545.998 525L547 515" stroke="black" stroke-width="3"/>
</svg>
