<svg width="900" height="740" viewBox="0 0 900 740" fill="none" xmlns="http://www.w3.org/2000/svg">
<path d="M421.5 353.5C400 343.5 387.5 347 376 358C357.6 378.8 372.666 405.667 382.5 416.5C391 424 415.6 439.4 446 441C476.4 442.6 502.333 425.333 511.5 416.5C520.333 406.5 535.7 381.9 526.5 363.5C515 340.5 494 347 479.5 353.5C465 360 443 363.5 421.5 353.5Z" fill="black"/>
<path d="M315.997 173C307.997 205.8 311 257.833 313.5 280C315.498 280 319.5 280 322 281C432.4 241.4 507.499 253 530.999 264C530.599 254.4 519.832 184.333 514.499 150.5C416.499 114.5 341.331 150.5 315.997 173Z" fill="black" stroke="black" stroke-width="3"/>
<path d="M335.5 430.485C287.5 402.085 292.167 345.985 300.5 321.485C302.833 313.818 310.5 294.985 322.5 280.985C431.7 241.785 506.667 252.985 530.5 263.485C546.167 270.318 577.5 297.485 577.5 351.485C577.5 401.475 541.506 434.754 519.5 447.751M351 424.485C340.667 426.652 315.7 438.085 298.5 466.485C292.667 475.318 284.8 497.385 300 514.985C305.333 521.652 323.5 532.685 353.5 523.485C353 529.652 348.5 551.985 351 584.485M345 436.485C345.5 430.152 352.4 416.385 376 411.985C384.667 411.152 402.9 413.685 406.5 430.485C408.146 437.218 405.87 451.203 386 458.334M345 497.485C361 486.685 374 468.318 378.5 460.485C381.242 459.871 383.735 459.147 386 458.334M386 458.334C436.8 477.814 492.833 461.218 514.5 450.485C516.059 449.705 517.735 448.793 519.5 447.751M519.5 447.751C541 455.662 581.5 484.985 595.5 584.485M536.5 514.485C539.333 526.485 545.3 557.285 546.5 584.485M3 584.485H898" stroke="black" stroke-width="3" stroke-linecap="round" stroke-linejoin="round"/>
<path d="M367.5 318.5C369.5 312.333 376.8 300.3 390 301.5C403.2 302.7 411.833 313.333 414.5 318.5M484.5 318.5C486.5 313 493.7 302.4 506.5 304C519.3 305.6 523.833 316.323 524.5 321.485" stroke="black" stroke-width="6" stroke-linecap="round" stroke-linejoin="round"/>
<path d="M322.499 280.5C311.299 294.1 303.165 313.5 300.499 321.5C280.898 329.9 263.665 328.333 257.499 326.5C240.699 320.1 250.499 308.5 257.499 303.5C282.699 285.9 311.332 280.833 322.499 280.5Z" fill="black" stroke="black" stroke-width="3"/>
<path d="M384.449 190.37L387.51 226.591L382.224 226.987L379.644 196.446L373.565 200.522L370.998 196.273L379.218 190.812L384.449 190.37ZM412.53 205.61C415.929 207.229 418.27 210.594 418.527 213.633C419.049 219.811 414.338 224.625 407.114 225.236C399.939 225.842 394.478 221.787 393.939 215.41L399.221 214.964C399.528 218.601 402.632 220.897 406.718 220.552C410.903 220.199 413.678 217.405 413.37 213.768C413.076 210.28 409.926 208.038 405.79 208.387L403.2 208.606L402.825 204.172L405.465 203.949C409.252 203.629 411.753 201.159 411.483 197.971C411.21 194.732 408.43 192.709 404.743 193.021C401.056 193.332 398.709 195.839 398.982 199.077L393.701 199.524C393.192 193.495 397.571 188.91 404.347 188.337C411.023 187.773 416.102 191.459 416.59 197.238C416.826 200.028 415.31 203.468 412.53 205.61ZM451.287 180.407L456.767 179.944L460.514 224.286L455.034 224.749L451.287 180.407ZM444.056 185.685C445.18 198.987 441.091 210.573 426.277 219.351L423.071 215.257C434.113 208.754 438.708 200.789 438.8 190.595L423.306 191.904L422.931 187.47L444.056 185.685Z" fill="white"/>
</svg>
