<svg width="900" height="740" viewBox="0 0 900 740" fill="none" xmlns="http://www.w3.org/2000/svg">
<ellipse cx="468.164" cy="281.894" rx="7.5" ry="9.5" fill="black"/>
<ellipse cx="529.164" cy="273.894" rx="7.5" ry="9.5" fill="black"/>
<path d="M434.805 160.666L440.178 196.616L434.929 197.35L430.398 167.037L424.593 171.494L421.76 167.418L429.613 161.442L434.805 160.666ZM463.804 174.077C467.299 175.476 469.852 178.684 470.302 181.7C471.219 187.832 466.825 192.938 459.655 194.009C452.534 195.073 446.825 191.376 445.879 185.047L451.121 184.263C451.66 187.873 454.905 189.967 458.96 189.361C463.114 188.74 465.704 185.775 465.165 182.165C464.647 178.703 461.36 176.667 457.256 177.28L454.684 177.664L454.027 173.263L456.647 172.871C460.406 172.31 462.744 169.685 462.271 166.521C461.79 163.306 458.886 161.465 455.227 162.012C451.568 162.559 449.385 165.211 449.866 168.425L444.624 169.208C443.73 163.225 447.807 158.369 454.532 157.364C461.159 156.373 466.462 159.726 467.32 165.463C467.734 168.232 466.441 171.762 463.804 174.077ZM500.868 146.445L506.308 145.632L512.885 189.644L507.446 190.457L500.868 146.445ZM493.99 152.175C495.963 165.378 492.624 177.202 478.402 186.91L474.941 183.029C485.544 175.833 489.62 167.59 489.059 157.411L473.68 159.709L473.023 155.308L493.99 152.175Z" fill="black"/>
<path d="M394.167 234.393C390.834 221.893 385.167 188.193 389.167 153.393C410.334 136.06 469.967 106.893 539.167 128.893C543 140.727 551.667 173.293 555.667 208.893C530 202.727 463.267 199.193 401.667 234.393M394.167 234.393C396.967 233.993 400.334 234.227 401.667 234.393M394.167 234.393C384.667 235.893 362.167 243.493 348.167 261.893C344.834 266.893 342.867 276.793 361.667 276.393C365.334 276.227 374.467 274.693 381.667 269.893M401.667 234.393C396.667 239.893 385.667 254.693 381.667 269.893M381.667 269.893C376.741 285.873 374.812 316.802 393 342.713M555.855 208.893C567.292 211.727 586.897 226.769 598.165 246C612.165 269.893 618.769 320.508 577.167 355.393C573.053 358.558 568.88 361.411 564.667 363.974M564.667 363.974C514.231 394.67 458.139 383.989 430.167 372.156C427.992 371.236 425.986 370.309 424.167 369.393C410.1 362.025 400.042 352.745 393 342.713M564.667 363.974L612.001 384L635.501 355.393C632.501 347.262 629.401 330.2 641.001 327C643.698 326.256 645.924 326.344 647.754 327M458.167 312.893C462.667 321.727 479.467 338.093 510.667 332.893C520.167 331.227 540.467 322.993 545.667 303.393M655.501 342.5C655.501 337.511 653.793 329.164 647.754 327M647.754 327C648.669 322.298 654.001 312.893 668.001 312.893C682.001 312.893 687.834 326.227 689.001 332.893C690.001 337.929 690.701 350 685.501 358C679.001 368 659.001 397.5 641.001 417C626.601 432.6 611.001 433.167 605.001 431.5C597.668 430 573.801 424.2 537.001 413M540.001 405.5L519.501 450.5M519.501 450.5C509.501 446.9 463.668 449 442.001 450.5M519.501 450.5C527.334 450.833 550.601 464.5 581.001 516.5C587.668 513.5 605.001 506.5 621.001 502.5C624.834 501.5 631.701 501.2 628.501 508C624.501 516.5 613.501 533 598.001 546.5C585.601 557.3 567.501 572.667 560.001 579L494.001 510L455.5 511.481M306.001 432C325.201 434 324.334 416.167 321.501 407C328.168 401.5 342.301 389.9 345.501 387.5C348.701 385.1 352.168 385.5 353.501 386L394.501 401C374.3 436.22 371.766 460.963 378.375 478M309.501 426C307.501 431.833 299.301 442.5 282.501 438.5C265.701 434.5 262.834 418.833 263.501 411.5C263.834 405.167 268.999 390.8 287 384C294.5 373.167 313.6 349.6 330 342C350.5 332.5 377.5 337.926 393 342.713M378.375 478C388.43 503.918 419.643 512 442.001 512L455.5 511.481M378.375 478L347.5 531C330.667 543.167 294.102 570.6 282.501 583C270.9 595.4 267 620.833 266.5 632C267.167 634.167 269.7 637.6 274.5 634C279.3 630.4 295.833 616.5 303.5 610C307.667 607.167 318.2 600.4 327 596C335.8 591.6 371 574.833 387.5 567C392.667 564.667 404.9 558.2 412.5 551C420.1 543.8 444.333 521.654 455.5 511.481M282.501 299H356M247.5 309.5H335M207 358H289M160 369.5H262.5" stroke="black" stroke-width="3"/>
<path d="M250.5 470.5L377 441.5C372.5 462 376.5 471 378 478L347 531.5L313.5 557L261.5 550.5L328.5 529.5L230 510.5L347 487L250.5 470.5Z" fill="black"/>
<path d="M471.851 513L427.541 549.847L424.801 552.125L428.346 552.492L467.336 556.525L362.939 618.538L404.107 573.512L406.685 570.693L402.878 571.005L379.381 572.931L408.722 556.814L408.895 556.72L409.037 556.584L454.603 513H471.851Z" fill="black" stroke="black" stroke-width="3"/>
</svg>
