<svg width="900" height="740" viewBox="0 0 900 740" fill="none" xmlns="http://www.w3.org/2000/svg">
<path d="M254.001 304C278.801 283.2 295.5 282 302.001 283.5C289.66 297.434 284.053 312.854 282.028 318.422L282 318.5C276 322.5 267.333 324.666 263.5 325C259.667 325.5 251.101 325.3 247.501 320.5C243.901 315.7 250.334 307.5 254.001 304Z" fill="black" stroke="black" stroke-width="3"/>
<path d="M289.502 202C285.102 237.6 291.335 270.833 295.002 283H302C354.8 249.4 426 250.5 456 257.5C453.6 231.1 444 193.333 439.5 177.5C373.9 154.7 312.168 184.333 289.502 202Z" fill="black" stroke="black" stroke-width="3"/>
<path d="M433.998 254.5C369.598 248.1 319.165 271.167 301.998 283.5C282.398 305.5 279.583 328.461 278.998 338C277.496 362.5 287.298 414.4 352.498 428C417.698 441.6 463.331 417.333 477.998 403.5C492.665 389.333 517.598 347.5 499.998 293.5C486.398 262.7 450.331 254.667 433.998 254.5Z" fill="white" stroke="black" stroke-width="3"/>
<path d="M251.5 548.5H605.5" stroke="black" stroke-width="3"/>
<path d="M284.502 483C294.902 448.6 319.502 427.333 330.502 421C352.501 430.833 410.3 443 465.5 413C470.333 414.833 482 421.2 490 432C498 442.8 511.667 463.167 517.5 472C518.5 473.333 524.5 480.5 524.5 480.5C524.5 480.5 520 470.5 527.5 463.5C529.841 461.316 536.5 458 542.5 462C544.833 461.5 550.6 460.9 555 462.5C560.5 464.5 565 466.5 568.5 474.5C572 482.5 572.5 495.5 565 510.5C557.5 525.5 548 536.5 531 540.5C514 544.5 497 535 488.5 530C488.833 534.5 489.5 544.4 489.5 548H389.94C388.758 548.837 387.571 549.508 386.5 550C381.833 552 366 555.7 340 554.5C314 553.3 298.835 545.667 294.502 542C286.835 536.667 274.102 517.4 284.502 483Z" fill="white"/>
<path d="M344 483.5C343.833 483.833 343.1 486.9 341.5 496.5C339.9 506.1 347.5 508.833 351.5 509C361.667 509.5 384.3 513.6 393.5 526C401.103 536.247 395.571 544.013 389.94 548M524.5 480.5C524.5 480.5 518.5 473.333 517.5 472C511.667 463.167 498 442.8 490 432C482 421.2 470.333 414.833 465.5 413C410.3 443 352.501 430.833 330.502 421C319.502 427.333 294.902 448.6 284.502 483C274.102 517.4 286.835 536.667 294.502 542C298.835 545.667 314 553.3 340 554.5C366 555.7 381.833 552 386.5 550C387.571 549.508 388.758 548.837 389.94 548M524.5 480.5C524.5 480.5 520 470.5 527.5 463.5C529.841 461.316 536.5 458 542.5 462M524.5 480.5C524.5 480.5 526.6 485.2 529 486M542.5 462C544.833 461.5 550.6 460.9 555 462.5C560.5 464.5 565 466.5 568.5 474.5C572 482.5 572.5 495.5 565 510.5C557.5 525.5 548 536.5 531 540.5C514 544.5 497 535 488.5 530M542.5 462C539.31 463.167 533.455 467.816 530.5 475.5C528 482 527.5 486.5 529 492.5C529.499 494.638 530.961 497.654 533.754 500.5C537.492 504.309 543.613 507.813 553 508.5M488.5 530C488.833 534.5 489.5 544.4 489.5 548H389.94M488.5 530L481.5 483" stroke="black" stroke-width="3"/>
<path d="M531.5 515L533.5 500C537.901 504.8 545.667 507.333 548.999 508L547.499 519C545.899 523.8 541.001 524.333 539.002 524C532.5 522.917 531.167 517.667 531.5 515Z" fill="#D47C00" stroke="black" stroke-width="3"/>
<path d="M562.5 435.5L545 433L541 462.5C547.8 460.5 554.833 462.333 557.5 463.5L562.5 435.5Z" fill="#D47C00" stroke="black" stroke-width="3"/>
<path d="M490.498 424.5C477.298 422.5 475.998 414 476.998 410L493.5 301C493.999 297.645 497.897 291.348 509.498 293C551.998 299 639.298 311.9 648.498 313.5C657.698 315.1 658.332 321.5 657.498 324.5L640.498 435.5C638.898 444.3 629.665 445.5 624.998 445L490.498 424.5Z" fill="#F3BC1E" stroke="black" stroke-width="3"/>
<path d="M511.5 319L521.5 320.5C522.833 320.667 525.3 321.6 524.5 324C524.667 326.833 521.3 335.5 506.5 347.5M534 319L531.486 335M528.5 354L531.486 335M531.486 335L541 336M544 319.5L538.5 357.5M556 321.5L555.167 329M570.5 324L569.652 331M555.167 329L554 339.5L568.5 340.5L569.652 331M555.167 329L569.652 331M582 325.5L581 334M580 343L581 334M581 334L588.5 335M556.5 347L575.5 350.5C576.667 350.667 578.9 351.7 578.5 354.5C578.5 355.5 577.8 357.4 575 357C572.2 356.6 562.167 355.167 557.5 354.5C556.5 354.5 554.5 355 554.5 357C554.167 358.333 554.3 361.1 557.5 361.5C560.7 361.9 572.5 364 578 365M596 331L605 332.25M614 333.5L605 332.25M605 332.25C604 338.833 599.8 353.1 591 357.5M605 332.25C604.333 339 604.7 353.7 611.5 358.5M624.5 332.25L621.883 348.5M618.5 369.5L621.883 348.5M621.883 348.5L628.5 349.5M510.5 372.5L524 375C523.696 377.656 522.591 381.792 520.268 386M506 399C512.971 396.168 517.49 391.032 520.268 386M520.268 386L507 384M537 374L531.486 410M543 398.5L560.5 401.25M578 404L560.5 401.25M560.5 401.25L558.5 414M589.5 385L603.5 387C602.5 392.833 597.3 405.6 584.5 410M616 386L610 421M564 378.5C567.667 378.833 575 381 575 387C575 393 567 393.5 563 393C558.667 392.5 550.3 390 551.5 384C552.7 378 560.333 377.833 564 378.5Z" stroke="black" stroke-width="5" stroke-linecap="round" stroke-linejoin="round"/>
<ellipse cx="368.5" cy="330.5" rx="7.5" ry="9.5" fill="black"/>
<ellipse cx="429.5" cy="322.5" rx="7.5" ry="9.5" fill="black"/>
<path d="M359 361.5C363.5 370.333 380.3 386.7 411.5 381.5C421 379.833 441.3 371.6 446.5 352" stroke="black" stroke-width="3"/>
<path d="M325 217.5L333 211.5L338 244.5M347.5 217.5C347.167 214.833 348.2 209.2 355 208C361.8 206.8 364.167 210.883 365 213.5C365.667 216.883 365 222.5 355 224C358.833 223.167 366.8 223.5 368 231.5C368.333 234.167 367.1 239.6 359.5 240C351.9 240.4 349.333 235.833 349 233.5M374 206L392 203.5C392.833 210.333 391.1 225.9 377.5 233.5M404 195L410.5 238.5" stroke="white" stroke-width="5"/>
</svg>
