<svg width="900" height="740" viewBox="0 0 900 740" fill="none" xmlns="http://www.w3.org/2000/svg">
<path d="M599.187 244.677C605.187 280.677 601.687 321.677 599.187 337.677H592.687C522.687 310.077 453.187 316.51 427.187 323.177L440.687 226.677C512.287 199.877 576.187 227.51 599.187 244.677Z" fill="black" stroke="black" stroke-width="3"/>
<path d="M427.5 323.001C420 325.001 402.2 333.201 393 358.001C381.5 389.001 390.5 423.501 403.5 444.501C416.5 465.501 450 484.001 508 485.501C566 487.001 608.5 444.001 612.5 410.501C614.23 396.01 613.715 383.109 611.157 372.001C609.771 364.168 603.999 346.302 592 337.501C522.799 309.901 453.5 316.335 427.5 323.001Z" fill="white"/>
<path d="M592 337.501C601.93 345.445 607.801 357.431 611.157 372.001M592 337.501C522.799 309.901 453.5 316.335 427.5 323.001C420 325.001 402.2 333.201 393 358.001C381.5 389.001 390.5 423.501 403.5 444.501C416.5 465.501 450 484.001 508 485.501C566 487.001 608.5 444.001 612.5 410.501C614.23 396.01 613.715 383.109 611.157 372.001M592 337.501C603.999 346.302 609.771 364.168 611.157 372.001" stroke="black" stroke-width="3"/>
<ellipse cx="8" cy="9.5" rx="8" ry="9.5" transform="matrix(-1 0 0 1 538.5 378.501)" fill="black"/>
<ellipse cx="8" cy="9.5" rx="8" ry="9.5" transform="matrix(-1 0 0 1 467.5 378.501)" fill="black"/>
<path d="M532.498 409C530.165 414.833 526.898 426.6 532.498 427C535.498 427.333 539.698 424.2 532.498 409Z" fill="#00C8FF" stroke="black" stroke-width="3" stroke-linecap="round" stroke-linejoin="round"/>
<path d="M525 443C520.947 436.757 508.118 424.422 489.221 425.021C470.324 425.62 461.2 437.257 459 443" stroke="black" stroke-width="3"/>
<path d="M618 543.501C611.6 502.301 582.333 477.001 568.5 469.501C522.9 499.102 458.167 481.168 431.5 468.501C414.667 477.168 378.6 511.601 373 586.001H413.5H512.398C513.565 587.401 514.828 588.59 516 589.501C528 598.301 571.667 593.168 592 588.501C594.392 587.784 596.588 586.944 598.6 586.001C620.142 575.911 620.744 554.019 618 543.501Z" fill="white"/>
<path d="M557.5 530.001C567.9 548.001 553.167 553.168 544.5 553.501C531.7 555.101 520.167 560.168 516 562.501C504.412 570.87 507.589 580.232 512.398 586.001M373 586.001C378.6 511.601 414.667 477.168 431.5 468.501C458.167 481.168 522.9 499.102 568.5 469.501C582.333 477.001 611.6 502.301 618 543.501C620.744 554.019 620.142 575.911 598.6 586.001M418.5 526.001C416 538.168 411.5 565.201 413.5 586.001M512.398 586.001C513.565 587.401 514.828 588.59 516 589.501C528 598.301 571.667 593.168 592 588.501C594.392 587.784 596.588 586.944 598.6 586.001M512.398 586.001H1M598.6 586.001H900" stroke="black" stroke-width="3"/>
<rect x="251.637" y="471.001" width="199" height="145" rx="6.5" fill="white" stroke="black" stroke-width="3"/>
<path d="M451 601.001H481.137C482.47 601.001 485.137 602.001 485.137 606.001C485.137 611.001 483.637 611.001 480.637 611.501L447.387 615.396C447.111 615.464 446.815 615.5 446.5 615.5L447.387 615.396C450.005 614.756 450.89 611.31 451 609.5V601.001Z" fill="white" stroke="black" stroke-width="3"/>
<path d="M482.623 251.901L479.06 288.076L473.79 287.507L476.795 257.004L470.078 259.91L468.324 255.265L477.398 251.386L482.623 251.901ZM507.472 271.984C510.521 274.193 512.213 277.927 511.914 280.962C511.306 287.133 505.799 291.011 498.584 290.301C491.419 289.595 486.784 284.617 487.412 278.247L492.686 278.767C492.328 282.399 494.965 285.221 499.045 285.623C503.225 286.035 506.46 283.791 506.818 280.159C507.161 276.676 504.47 273.899 500.34 273.492L497.753 273.237L498.189 268.808L500.826 269.068C504.608 269.441 507.516 267.466 507.829 264.282C508.148 261.047 505.781 258.553 502.099 258.191C498.417 257.828 495.653 259.867 495.335 263.101L490.06 262.582C490.653 256.561 495.792 252.847 502.56 253.513C509.227 254.17 513.552 258.716 512.984 264.488C512.709 267.274 510.595 270.382 507.472 271.984ZM550.159 254.233L555.633 254.772L551.27 299.058L545.797 298.519L550.159 254.233ZM542.09 258.111C540.782 271.396 534.658 282.047 518.497 287.992L516.087 283.383C528.126 278.992 534.091 271.993 536.031 261.985L520.556 260.461L520.992 256.032L542.09 258.111Z" fill="white"/>
<path d="M644.5 356.505C626.576 342.165 601.833 337.838 591 338.005C603.8 349.205 608.667 365.671 609.5 372.505C619.1 376.505 632.5 376.505 638 376.005C654.4 373.605 652 362.505 644.5 356.505Z" fill="black" stroke="black"/>
</svg>
