<svg width="900" height="740" viewBox="0 0 900 740" fill="none" xmlns="http://www.w3.org/2000/svg">
<path d="M332 492.272H624.5V542.272L550.5 608.772H264V548.272L332 492.272Z" fill="#D9D9D9"/>
<path d="M264 548.272H550.5M264 548.272L332 492.272H624.5M264 548.272V608.772H550.5M550.5 548.272L624.5 492.272M550.5 548.272V608.772M624.5 492.272V542.272L550.5 608.772" stroke="black" stroke-width="3"/>
<path d="M512.5 526.773H338.5C309.287 450.224 282.445 311.559 358 261.994C372.4 250.572 388 241.754 394 238.773C422.667 225.773 494.2 215.273 551 277.273C607.8 339.273 574.667 453.106 551 502.273L512.5 526.773Z" fill="#D9D9D9"/>
<path d="M512.5 526.773C550.5 432.439 586.9 243.773 428.5 243.773C398.636 243.773 375.554 250.479 358 261.994M512.5 526.773H338.5C309.287 450.224 282.445 311.559 358 261.994M512.5 526.773L551 502.273C574.667 453.106 607.8 339.273 551 277.273C494.2 215.273 422.667 225.773 394 238.773C388 241.754 372.4 250.572 358 261.994" stroke="black" stroke-width="3"/>
<path d="M444.5 166.272L440.5 236.272M419 192.772H467.5" stroke="black" stroke-width="6" stroke-linecap="round" stroke-linejoin="round"/>
<path d="M649.5 187.272C653.833 189.772 664.1 192.672 670.5 184.272M593.5 240.273C599.333 240.439 611.8 236.273 615 218.273C619 195.773 598.5 154.273 647 135.773C685.8 120.973 703.167 153.273 707 171.273C710.833 188.273 710.5 227.472 678.5 248.272C646.5 269.072 608.5 251.606 593.5 240.273Z" stroke="black" stroke-width="3" stroke-linecap="round" stroke-linejoin="round"/>
<path d="M226.42 307.366C223.899 308.795 217.926 310.453 214.203 305.651M259 337.661C255.606 337.756 248.353 335.374 246.492 325.086C244.165 312.225 256.091 288.503 227.875 277.929C205.302 269.469 195.198 287.932 192.968 298.221C190.738 307.938 190.932 330.344 209.549 342.233C228.166 354.123 250.273 344.139 259 337.661Z" stroke="black" stroke-width="3" stroke-linecap="round" stroke-linejoin="round"/>
<path d="M635.001 178.273C635.404 184.312 639 187.273 643 182.773C644.197 181.426 646.5 178.773 646.5 175.773C646.5 170.273 644.5 169.273 642.003 168.772C639.363 168.243 634.5 170.773 635.001 178.273Z" fill="black"/>
<path d="M678 161.773C674.8 158.173 672 160.772 671.5 163.273C671.156 164.991 670.7 169.873 673.5 172.273C676.3 174.673 679 173.273 680 172.273C682 170.272 681.2 165.373 678 161.773Z" fill="black"/>
<path d="M233.981 302.026C233.762 305.416 231.813 307.077 229.645 304.552C228.996 303.796 227.748 302.307 227.748 300.623C227.748 297.537 228.832 296.976 230.185 296.695C231.616 296.398 234.252 297.817 233.981 302.026Z" fill="black"/>
<path d="M210.675 292.767C212.409 290.747 213.927 292.205 214.198 293.609C214.384 294.573 214.632 297.312 213.114 298.659C211.596 300.006 210.133 299.22 209.591 298.659C208.507 297.537 208.941 294.787 210.675 292.767Z" fill="black"/>
<path d="M395.403 396.772V360.409H407.69C410.531 360.409 412.863 360.894 414.686 361.865C416.509 362.824 417.858 364.143 418.734 365.824C419.61 367.505 420.048 369.417 420.048 371.559C420.048 373.702 419.61 375.602 418.734 377.259C417.858 378.916 416.515 380.218 414.704 381.165C412.893 382.1 410.579 382.568 407.761 382.568H397.818V378.591H407.619C409.561 378.591 411.123 378.307 412.307 377.738C413.502 377.17 414.366 376.365 414.899 375.324C415.444 374.27 415.716 373.015 415.716 371.559C415.716 370.103 415.444 368.831 414.899 367.742C414.355 366.653 413.485 365.812 412.289 365.221C411.094 364.617 409.513 364.315 407.548 364.315H399.807V396.772H395.403ZM412.52 380.437L421.469 396.772H416.355L407.548 380.437H412.52ZM431.789 360.409V396.772H427.386V360.409H431.789ZM440.618 396.772V360.409H452.905C455.758 360.409 458.09 360.924 459.901 361.954C461.724 362.972 463.073 364.351 463.949 366.091C464.825 367.831 465.263 369.772 465.263 371.915C465.263 374.057 464.825 376.004 463.949 377.756C463.085 379.508 461.748 380.905 459.936 381.946C458.125 382.976 455.805 383.491 452.976 383.491H444.169V379.585H452.834C454.787 379.585 456.356 379.248 457.539 378.573C458.723 377.898 459.581 376.987 460.114 375.839C460.658 374.678 460.931 373.37 460.931 371.915C460.931 370.459 460.658 369.156 460.114 368.008C459.581 366.86 458.717 365.96 457.522 365.309C456.326 364.647 454.74 364.315 452.763 364.315H445.022V396.772H440.618Z" fill="black"/>
</svg>
