<svg width="900" height="740" viewBox="0 0 900 740" fill="none" xmlns="http://www.w3.org/2000/svg">
<path d="M599.187 244.677C605.187 280.677 601.687 321.677 599.187 337.677H592.687C522.687 310.077 453.187 316.51 427.187 323.177L440.687 226.677C512.287 199.877 576.187 227.51 599.187 244.677Z" fill="#060606" stroke="black" stroke-width="3"/>
<path d="M393 358.001C402.2 333.201 420 325.001 427.5 323.001C453.5 316.335 522.799 309.901 592 337.501C601.93 345.445 607.801 357.431 611.157 372.001C613.715 383.109 614.23 396.01 612.5 410.501C608.5 444.001 566 487.001 508 485.501C450 484.001 416.5 465.501 403.5 444.501C390.5 423.501 381.5 389.001 393 358.001Z" fill="white" stroke="black" stroke-width="3"/>
<ellipse cx="8" cy="9.5" rx="8" ry="9.5" transform="matrix(-1 0 0 1 538.5 378.501)" fill="black"/>
<ellipse cx="8" cy="9.5" rx="8" ry="9.5" transform="matrix(-1 0 0 1 467.5 378.501)" fill="black"/>
<path d="M618 543.501C611.6 502.301 582.333 477.001 568.5 469.501C522.9 499.102 458.167 481.168 431.5 468.501C414.667 477.168 378.6 511.601 373 586.001H413.5H512.398C513.565 587.401 514.828 588.59 516 589.501C528 598.301 571.667 593.168 592 588.501C594.392 587.784 596.588 586.944 598.6 586.001C620.142 575.911 620.744 554.019 618 543.501Z" fill="white"/>
<path d="M557.5 530.001C567.9 548.001 553.167 553.168 544.5 553.501C531.7 555.101 520.167 560.168 516 562.501C504.412 570.87 507.589 580.232 512.398 586.001M373 586.001C378.6 511.601 414.667 477.168 431.5 468.501C458.167 481.168 522.9 499.102 568.5 469.501C582.333 477.001 611.6 502.301 618 543.501C620.744 554.019 620.142 575.911 598.6 586.001M418.5 526.001C416 538.168 411.5 565.201 413.5 586.001M512.398 586.001C513.565 587.401 514.828 588.59 516 589.501C528 598.301 571.667 593.168 592 588.501C594.392 587.784 596.588 586.944 598.6 586.001M512.398 586.001H1M598.6 586.001H900" stroke="black" stroke-width="3"/>
<path d="M528 434C523.886 433.653 510.862 432.968 491.679 433.001C472.496 433.034 463.233 433.681 461 434" stroke="black" stroke-width="3"/>
<path d="M95.1382 606.001C86.3382 571.601 90.8048 509.668 94.1382 483.001C93.3382 475.001 99.8048 472.668 103.138 472.501C143.472 471.334 225.638 469.001 231.638 469.001C237.638 469.001 238.805 474.001 238.638 476.501V605.001C238.638 611.401 233.972 613.001 231.638 613.001H105.638C97.2382 613.001 95.1382 608.334 95.1382 606.001Z" fill="#D9D9D9" stroke="black" stroke-width="3" stroke-linecap="round"/>
<path d="M163.636 525.001C162.136 521.168 162.336 512.901 175.136 510.501C175.636 515.334 174.036 525.001 163.636 525.001Z" fill="black"/>
<path d="M186.638 556.001C175.438 545.601 181.971 535.668 186.638 532.001C178.638 523.601 170.305 526.168 167.138 528.501C164.338 530.118 160.971 529.175 159.638 528.501C157.638 526.501 153.805 526.001 152.138 526.001C146.138 526.001 142.305 530.334 141.138 532.501C133.538 548.101 142.638 563.334 148.138 569.001C152.138 573.001 156.805 572.001 158.638 571.001C160.638 569.001 165.805 569.501 168.138 570.001C173.338 572.401 176.638 572.001 178.138 571.001C184.938 565.801 186.638 558.834 186.638 556.001Z" fill="black"/>
<rect x="252.637" y="469.001" width="199" height="145" rx="6.5" fill="white" stroke="black" stroke-width="3"/>
<path d="M326.137 526.501C326.137 524.292 327.928 522.501 330.137 522.501H351.137V547.501H326.137V526.501Z" fill="#FD714B"/>
<path d="M354.137 522.501H376.137C378.346 522.501 380.137 524.292 380.137 526.501V547.501H354.137V522.501Z" fill="#79AB19"/>
<path d="M354.137 550.501H380.137V571.501C380.137 573.71 378.346 575.501 376.137 575.501H354.137V550.501Z" fill="#F3BC1E"/>
<path d="M326.137 550.501H351.137V575.501H330.137C327.928 575.501 326.137 573.71 326.137 571.501V550.501Z" fill="#4C9AF0"/>
<path d="M452.137 599.001H482.137C483.47 599.001 486.137 600.001 486.137 604.001C486.137 609.001 484.637 609.001 481.637 609.501L448.808 613.363C448.454 613.452 448.064 613.501 447.637 613.501L448.808 613.363C451.527 612.68 452.177 609.622 452.137 608V599.001Z" fill="white"/>
<path d="M452.137 599.001H482.137C483.47 599.001 486.137 600.001 486.137 604.001C486.137 609.001 484.637 609.001 481.637 609.501L447.637 613.501C451.346 613.501 452.182 609.834 452.137 608V599.001Z" stroke="black" stroke-width="3"/>
<path d="M252.5 599.5H238.637V606.499C238.516 608.833 236.909 612.999 232 612.999L256.5 613.499C253.409 612.7 252.546 609.5 252.5 607.999V599.5Z" fill="#D9D9D9" stroke="black" stroke-width="3"/>
<path d="M482.623 251.901L479.06 288.076L473.79 287.507L476.795 257.004L470.078 259.91L468.324 255.265L477.398 251.386L482.623 251.901ZM507.472 271.984C510.521 274.193 512.213 277.927 511.914 280.962C511.306 287.133 505.799 291.011 498.584 290.301C491.419 289.595 486.784 284.617 487.412 278.247L492.686 278.767C492.328 282.399 494.965 285.221 499.045 285.623C503.225 286.035 506.46 283.791 506.818 280.159C507.161 276.676 504.47 273.899 500.34 273.492L497.753 273.237L498.189 268.808L500.826 269.068C504.608 269.441 507.516 267.466 507.829 264.282C508.148 261.047 505.781 258.553 502.099 258.191C498.417 257.828 495.653 259.867 495.335 263.101L490.06 262.582C490.653 256.561 495.792 252.847 502.56 253.513C509.227 254.17 513.552 258.716 512.984 264.488C512.709 267.274 510.595 270.382 507.472 271.984ZM550.159 254.233L555.633 254.772L551.27 299.058L545.797 298.519L550.159 254.233ZM542.09 258.111C540.782 271.396 534.658 282.047 518.497 287.992L516.087 283.383C528.126 278.992 534.091 271.993 536.031 261.985L520.556 260.461L520.992 256.032L542.09 258.111Z" fill="white"/>
<path d="M646.5 356.505C628.576 342.165 603.833 337.838 593 338.005C605.8 349.205 610.667 365.671 611.5 372.505C621.1 376.505 634.5 376.505 640 376.005C656.4 373.605 654 362.505 646.5 356.505Z" fill="black" stroke="black"/>
</svg>
