<svg width="900" height="740" viewBox="0 0 900 740" fill="none" xmlns="http://www.w3.org/2000/svg">
<path d="M567 281C551.4 303.8 531.5 345.5 523.5 363.5C581.9 375.9 649.5 410.333 676 426C689.2 404 708.833 363.167 717 345.5C665.4 301.9 595.5 284.333 567 281Z" fill="black" stroke="black" stroke-width="3"/>
<path d="M444 368C457.2 360.8 503.167 361.667 524.5 363C498.5 368.2 481.667 384.5 476.5 392C462.9 391.6 448.5 387.167 443 385C437.833 382.333 430.8 375.2 444 368Z" fill="black" stroke="black" stroke-width="3"/>
<path d="M675.498 426.5C618.698 389.7 550.832 369.167 523.998 363.5C484.397 370.7 467.498 401.833 463.998 416.5C446.398 478.9 503.998 519.833 534.998 532.5C557.165 542.667 611.698 555.2 652.498 524C693.298 492.8 684.832 446 675.498 426.5Z" stroke="black" stroke-width="3"/>
<path d="M575.5 543C512.7 536.2 478 493.167 468.5 472.5C447.167 486.667 403.4 528.8 399 588H510.5C510.5 590.5 511.5 592.5 511.5 592.5C516.5 605 552 595 566 589C610.8 599.8 659.333 599.833 678 598.5C689.667 597.167 711.3 588.1 704.5 562.5C697.7 536.9 678.667 514.5 670 506.5C645.2 542.5 596.667 545.833 575.5 543Z" fill="white"/>
<path d="M662 555.5C658 556.5 639 558.5 623.5 557C608 555.5 599 553.5 582.5 553C569.3 552.6 557.333 554.5 553 555.5C517.33 566.818 510.5 580 510.5 588M510.5 588C510.5 590.5 511.5 592.5 511.5 592.5C516.5 605 552 595 566 589C610.8 599.8 659.333 599.833 678 598.5C689.667 597.167 711.3 588.1 704.5 562.5C697.7 536.9 678.667 514.5 670 506.5C645.2 542.5 596.667 545.833 575.5 543C512.7 536.2 478 493.167 468.5 472.5C447.167 486.667 403.4 528.8 399 588H510.5Z" stroke="black" stroke-width="3"/>
<path d="M547.5 432.5C549.5 441 558 451.5 576.5 446M609.5 456C612 462.833 621.3 475.1 638.5 469.5" stroke="black" stroke-width="6" stroke-linecap="round" stroke-linejoin="round"/>
<path d="M571.501 535C579.901 539 584.668 522.667 586.001 514L578.001 510.5C572.335 517 563.101 531 571.501 535Z" fill="#00C8FF" stroke="black" stroke-width="3" stroke-linecap="round" stroke-linejoin="round"/>
<path d="M585.501 481C566.701 473.8 552.668 479.334 548.001 483C539.201 489.8 546.001 496.833 550.501 499.5C556.908 502.085 568.454 506.732 577.501 510.343C580.549 511.559 583.313 512.657 585.501 513.52C586.451 513.894 587.292 514.224 588.001 514.5C595.201 517.3 601.001 510.667 603.001 507C605.001 501.333 604.301 488.2 585.501 481Z" fill="#0C0C0C" stroke="black" stroke-width="3" stroke-linecap="round" stroke-linejoin="round"/>
<path d="M720 312C724 310.167 734.1 306.3 742.5 305.5L730.5 335.5C735.667 333.833 747.6 330.3 754 329.5M754 270C759.167 267.333 772.6 261.4 785 259L769.5 300C777.167 297.333 794 291.7 800 290.5" stroke="black" stroke-width="6" stroke-linecap="round" stroke-linejoin="round"/>
<path d="M700 588H898M399.5 588H2" stroke="black" stroke-width="3"/>
<path d="M600.679 320.193L585.586 353.261L580.785 351.015L593.511 323.132L586.215 323.704L586.061 318.743L595.903 318.013L600.679 320.193ZM617.68 347.244C619.848 350.322 620.239 354.402 618.972 357.177C616.398 362.817 609.932 364.703 603.336 361.692C596.786 358.703 594.015 352.492 596.672 346.669L601.494 348.87C599.978 352.19 601.558 355.714 605.288 357.417C609.108 359.161 612.896 358.086 614.412 354.766C615.865 351.582 614.219 348.083 610.444 346.36L608.079 345.28L609.926 341.232L612.337 342.332C615.794 343.91 619.185 342.984 620.513 340.073C621.863 337.116 620.432 333.99 617.066 332.454C613.7 330.917 610.425 331.951 609.076 334.908L604.254 332.707C606.766 327.203 612.831 325.354 619.017 328.178C625.112 330.96 627.731 336.662 625.323 341.938C624.16 344.486 621.153 346.74 617.68 347.244ZM663.816 344.282L668.819 346.566L650.342 387.049L645.339 384.765L663.816 344.282ZM654.926 345.336C649.383 357.481 640.138 365.573 622.923 365.96L622.137 360.82C634.948 360.566 642.859 355.878 647.938 347.039L633.792 340.582L635.639 336.534L654.926 345.336Z" fill="white"/>
<path d="M95.1382 606.001C86.3382 571.601 90.8048 509.668 94.1382 483.001C93.3382 475.001 99.8048 472.668 103.138 472.501C143.472 471.334 225.638 469.001 231.638 469.001C237.638 469.001 238.805 474.001 238.638 476.501V605.001C238.638 611.401 233.972 613.001 231.638 613.001H105.638C97.2382 613.001 95.1382 608.334 95.1382 606.001Z" fill="#D9D9D9" stroke="black" stroke-width="3" stroke-linecap="round"/>
<path d="M163.638 525.001C162.138 521.168 162.338 512.901 175.138 510.501C175.638 515.334 174.038 525.001 163.638 525.001Z" fill="black"/>
<path d="M186.638 556.001C175.438 545.601 181.971 535.668 186.638 532.001C178.638 523.601 170.305 526.168 167.138 528.501C164.338 530.118 160.971 529.175 159.638 528.501C157.638 526.501 153.805 526.001 152.138 526.001C146.138 526.001 142.305 530.334 141.138 532.501C133.538 548.101 142.638 563.334 148.138 569.001C152.138 573.001 156.805 572.001 158.638 571.001C160.638 569.001 165.805 569.501 168.138 570.001C173.338 572.401 176.638 572.001 178.138 571.001C184.938 565.801 186.638 558.834 186.638 556.001Z" fill="black"/>
<rect x="252.639" y="469.001" width="199" height="145" rx="6.5" fill="white" stroke="black" stroke-width="3"/>
<path d="M326.139 526.501C326.139 524.292 327.93 522.501 330.139 522.501H351.139V547.501H326.139V526.501Z" fill="#FD714B"/>
<path d="M354.139 522.501H376.139C378.348 522.501 380.139 524.292 380.139 526.501V547.501H354.139V522.501Z" fill="#79AB19"/>
<path d="M354.139 550.501H380.139V571.501C380.139 573.71 378.348 575.501 376.139 575.501H354.139V550.501Z" fill="#F3BC1E"/>
<path d="M326.139 550.501H351.139V575.501H330.139C327.93 575.501 326.139 573.71 326.139 571.501V550.501Z" fill="#4C9AF0"/>
<path d="M452.139 599.001H482.139C483.472 599.001 486.139 600.001 486.139 604.001C486.139 609.001 484.639 609.001 481.639 609.501L448.81 613.363C448.456 613.452 448.066 613.501 447.639 613.501L448.81 613.363C451.529 612.68 452.179 609.622 452.139 608V599.001Z" fill="white"/>
<path d="M452.139 599.001H482.139C483.472 599.001 486.139 600.001 486.139 604.001C486.139 609.001 484.639 609.001 481.639 609.501L447.639 613.501C451.348 613.501 452.184 609.834 452.139 608V599.001Z" stroke="black" stroke-width="3"/>
<path d="M252.5 599.5H238.637V606.499C238.516 608.833 236.909 612.999 232 612.999L256.5 613.499C253.409 612.7 252.546 609.5 252.5 607.999V599.5Z" fill="#D9D9D9" stroke="black" stroke-width="3"/>
</svg>
