<svg width="900" height="740" viewBox="0 0 900 740" fill="none" xmlns="http://www.w3.org/2000/svg">
<path d="M567 281C551.4 303.8 531.5 345.5 523.5 363.5C581.9 375.9 649.5 410.333 676 426C689.2 404 708.833 363.167 717 345.5C665.4 301.9 595.5 284.333 567 281Z" fill="black" stroke="black" stroke-width="3"/>
<path d="M444 368C457.2 360.8 503.167 361.667 524.5 363C498.5 368.2 481.667 384.5 476.5 392C462.9 391.6 448.5 387.167 443 385C437.833 382.333 430.8 375.2 444 368Z" fill="black" stroke="black" stroke-width="3"/>
<path d="M675.498 426.5C618.698 389.7 550.832 369.167 523.998 363.5C484.397 370.7 467.498 401.833 463.998 416.5C446.398 478.9 503.998 519.833 534.998 532.5C557.165 542.667 611.698 555.2 652.498 524C693.298 492.8 684.832 446 675.498 426.5Z" stroke="black" stroke-width="3"/>
<path d="M575.5 543C512.7 536.2 478 493.167 468.5 472.5C447.167 486.667 403.4 528.8 399 588H510.5C510.5 590.5 511.5 592.5 511.5 592.5C516.5 605 552 595 566 589C610.8 599.8 659.333 599.833 678 598.5C689.667 597.167 711.3 588.1 704.5 562.5C697.7 536.9 678.667 514.5 670 506.5C645.2 542.5 596.667 545.833 575.5 543Z" fill="white"/>
<path d="M662 555.5C658 556.5 639 558.5 623.5 557C608 555.5 599 553.5 582.5 553C569.3 552.6 557.333 554.5 553 555.5C517.33 566.818 510.5 580 510.5 588M510.5 588C510.5 590.5 511.5 592.5 511.5 592.5C516.5 605 552 595 566 589C610.8 599.8 659.333 599.833 678 598.5C689.667 597.167 711.3 588.1 704.5 562.5C697.7 536.9 678.667 514.5 670 506.5C645.2 542.5 596.667 545.833 575.5 543C512.7 536.2 478 493.167 468.5 472.5C447.167 486.667 403.4 528.8 399 588H510.5Z" stroke="black" stroke-width="3"/>
<path d="M547.5 432.5C549.5 441 558 451.5 576.5 446M609.5 456C612 462.833 621.3 475.1 638.5 469.5" stroke="black" stroke-width="6" stroke-linecap="round" stroke-linejoin="round"/>
<path d="M571.501 535C579.901 539 584.668 522.667 586.001 514L578.001 510.5C572.335 517 563.101 531 571.501 535Z" fill="#00C8FF" stroke="black" stroke-width="3" stroke-linecap="round" stroke-linejoin="round"/>
<path d="M585.501 481C566.701 473.8 552.668 479.334 548.001 483C539.201 489.8 546.001 496.833 550.501 499.5C556.908 502.085 568.454 506.732 577.501 510.343C580.549 511.559 583.313 512.657 585.501 513.52C586.451 513.894 587.292 514.224 588.001 514.5C595.201 517.3 601.001 510.667 603.001 507C605.001 501.333 604.301 488.2 585.501 481Z" fill="#0C0C0C" stroke="black" stroke-width="3" stroke-linecap="round" stroke-linejoin="round"/>
<path d="M720 312C724 310.167 734.1 306.3 742.5 305.5L730.5 335.5C735.667 333.833 747.6 330.3 754 329.5M754 270C759.167 267.333 772.6 261.4 785 259L769.5 300C777.167 297.333 794 291.7 800 290.5" stroke="black" stroke-width="6" stroke-linecap="round" stroke-linejoin="round"/>
<path d="M700 588H898M399.5 588H2" stroke="black" stroke-width="3"/>
<path d="M600.679 320.193L585.586 353.261L580.785 351.015L593.511 323.132L586.215 323.704L586.061 318.743L595.903 318.013L600.679 320.193ZM617.68 347.244C619.848 350.322 620.239 354.402 618.972 357.177C616.398 362.817 609.932 364.703 603.336 361.692C596.786 358.703 594.015 352.492 596.672 346.669L601.494 348.87C599.978 352.19 601.558 355.714 605.288 357.417C609.108 359.161 612.896 358.086 614.412 354.766C615.865 351.582 614.219 348.083 610.444 346.36L608.079 345.28L609.926 341.232L612.337 342.332C615.794 343.91 619.185 342.984 620.513 340.073C621.863 337.116 620.432 333.99 617.066 332.454C613.7 330.917 610.425 331.951 609.076 334.908L604.254 332.707C606.766 327.203 612.831 325.354 619.017 328.178C625.112 330.96 627.731 336.662 625.323 341.938C624.16 344.486 621.153 346.74 617.68 347.244ZM663.816 344.282L668.819 346.566L650.342 387.049L645.339 384.765L663.816 344.282ZM654.926 345.336C649.383 357.481 640.138 365.573 622.923 365.96L622.137 360.82C634.948 360.566 642.859 355.878 647.938 347.039L633.792 340.582L635.639 336.534L654.926 345.336Z" fill="white"/>
<rect x="251.637" y="471.001" width="199" height="145" rx="6.5" fill="white" stroke="black" stroke-width="3"/>
<path d="M451 601.001H481.137C482.47 601.001 485.137 602.001 485.137 606.001C485.137 611.001 483.637 611.001 480.637 611.501L447.387 615.396C447.111 615.464 446.815 615.5 446.5 615.5L447.387 615.396C450.005 614.756 450.89 611.31 451 609.5V601.001Z" fill="white" stroke="black" stroke-width="3"/>
</svg>
